<?xml version="1.0" encoding="UTF-8"?>
<svg xmlns="http://www.w3.org/2000/svg" xmlns:xlink="http://www.w3.org/1999/xlink" width="100pt" height="100pt" viewBox="0 0 100 100" version="1.1">
<g id="surface4671160">
<path style=" stroke:none;fill-rule:nonzero;fill:rgb(92.156863%,34.117648%,34.117648%);fill-opacity:1;" d="M 55.257812 61.945312 L 65.59375 72.28125 C 64.011719 75.292969 63.851562 78.289062 65.511719 79.949219 L 84.375 98.8125 C 86.75 101.1875 91.925781 99.886719 95.898438 95.898438 C 99.886719 91.910156 101.1875 86.75 98.8125 84.375 L 79.964844 65.511719 C 78.289062 63.851562 75.292969 64.015625 72.28125 65.578125 L 61.945312 55.257812 Z M 35.417969 0 C 15.851562 0 0 15.851562 0 35.417969 C 0 54.980469 15.851562 70.832031 35.417969 70.832031 C 54.980469 70.832031 70.832031 54.980469 70.832031 35.417969 C 70.832031 15.851562 54.980469 0 35.417969 0 Z M 35.417969 62.5 C 20.457031 62.5 8.332031 50.375 8.332031 35.417969 C 8.332031 20.457031 20.460938 8.332031 35.417969 8.332031 C 50.375 8.332031 62.5 20.460938 62.5 35.417969 C 62.5 50.375 50.375 62.5 35.417969 62.5 Z M 35.417969 62.5 "/>
</g>
</svg>
